<svg xmlns="http://www.w3.org/2000/svg" xmlns:xlink="http://www.w3.org/1999/xlink" width="512" height="512" viewBox="0 0 512 512">
  <defs>
    <clipPath id="clip-icon512">
      <rect width="512" height="512"/>
    </clipPath>
  </defs>
  <g id="icon512" clip-path="url(#clip-icon512)">
    <g id="icon" transform="translate(-385.965 -437.225)">
      <path id="路径_13155" data-name="路径 13155" d="M58.27-16.8V323.762a83.949,83.949,0,0,0,14.022,55.066,51.981,51.981,0,0,0,41.317,16,105.1,105.1,0,0,0,36.552-6.4,164.2,164.2,0,0,0,38.594-21.781l24.595,35.213a151.609,151.609,0,0,1-23.914,16A183.081,183.081,0,0,1,162.8,429.7a185.319,185.319,0,0,1-27.227,7.351,137.834,137.834,0,0,1-25.48,2.587,153.582,153.582,0,0,1-45.083-6.081,77.892,77.892,0,0,1-33.126-19.535,85.2,85.2,0,0,1-20.057-35.508,187.729,187.729,0,0,1-6.807-54.726V26.082Z" transform="translate(428.438 481.8)" fill="#0ec933"/>
      <path id="路径_13156" data-name="路径 13156" d="M58.27-16.8V323.762a83.949,83.949,0,0,0,14.022,55.066,51.981,51.981,0,0,0,41.317,16,105.1,105.1,0,0,0,36.552-6.4,164.2,164.2,0,0,0,38.594-21.781l24.595,35.213a151.609,151.609,0,0,1-23.914,16A183.081,183.081,0,0,1,162.8,429.7a185.319,185.319,0,0,1-27.227,7.351,137.834,137.834,0,0,1-25.48,2.587,153.582,153.582,0,0,1-45.083-6.081,77.892,77.892,0,0,1-33.126-19.535,85.2,85.2,0,0,1-20.057-35.508,187.729,187.729,0,0,1-6.807-54.726V26.082Z" transform="translate(637.176 481.8)" fill="#0ec933"/>
    </g>
  </g>
</svg>
